<svg width="51" height="51" viewBox="0 0 51 51" fill="none" xmlns="http://www.w3.org/2000/svg">
<g clip-path="url(#clip0_1_9)">
<g filter="url(#filter0_dd_1_9)">
<path d="M37.894 30.8811C37.0033 32.9871 35.6104 34.8429 33.8367 36.2862C32.063 37.7295 29.9628 38.7165 27.7196 39.1608C25.4764 39.605 23.1585 39.493 20.9686 38.8346C18.7786 38.1762 16.7833 36.9914 15.1571 35.3838C13.5308 33.7762 12.3232 31.7948 11.6399 29.6127C10.9564 27.4307 10.818 25.1145 11.2366 22.8666C11.6553 20.6187 12.6182 18.5075 14.0413 16.7176C15.4645 14.9279 17.3044 13.5138 19.4004 12.5993" stroke="#FFEAA7" stroke-width="3" stroke-linecap="round" stroke-linejoin="round"/>
<path d="M39 25.4358C39 23.5975 38.6379 21.7772 37.9343 20.0788C37.2308 18.3805 36.1996 16.8373 34.8996 15.5375C33.5996 14.2377 32.0563 13.2066 30.3577 12.5031C28.6592 11.7996 26.8388 11.4375 25.0003 11.4375V25.4358H39Z" stroke="#FFEAA7" stroke-width="3" stroke-linecap="round" stroke-linejoin="round"/>
</g>
</g>
<defs>
<filter id="filter0_dd_1_9" x="-6.5" y="-2.0625" width="63" height="62.99" filterUnits="userSpaceOnUse" color-interpolation-filters="sRGB">
<feFlood flood-opacity="0" result="BackgroundImageFix"/>
<feColorMatrix in="SourceAlpha" type="matrix" values="0 0 0 0 0 0 0 0 0 0 0 0 0 0 0 0 0 0 127 0" result="hardAlpha"/>
<feOffset dy="4"/>
<feGaussianBlur stdDeviation="8"/>
<feColorMatrix type="matrix" values="0 0 0 0 0.14902 0 0 0 0 0.196078 0 0 0 0 0.219608 0 0 0 0.08 0"/>
<feBlend mode="multiply" in2="BackgroundImageFix" result="effect1_dropShadow_1_9"/>
<feColorMatrix in="SourceAlpha" type="matrix" values="0 0 0 0 0 0 0 0 0 0 0 0 0 0 0 0 0 0 127 0" result="hardAlpha"/>
<feOffset dy="4"/>
<feGaussianBlur stdDeviation="3"/>
<feColorMatrix type="matrix" values="0 0 0 0 0.14902 0 0 0 0 0.196078 0 0 0 0 0.219608 0 0 0 0.16 0"/>
<feBlend mode="multiply" in2="effect1_dropShadow_1_9" result="effect2_dropShadow_1_9"/>
<feBlend mode="normal" in="SourceGraphic" in2="effect2_dropShadow_1_9" result="shape"/>
</filter>
<clipPath id="clip0_1_9">
<rect width="50" height="50" fill="white" transform="translate(0.5 0.5)"/>
</clipPath>
</defs>
</svg>
