<svg width="49" height="50" viewBox="0 0 49 50" fill="none" xmlns="http://www.w3.org/2000/svg">
<g clip-path="url(#clip0_1_19)">
<g filter="url(#filter0_dd_1_19)">
<path d="M28.1134 13.2997C29.4808 13.5998 30.7375 14.3522 31.7227 15.4603C32.7078 16.5686 33.3766 17.9823 33.6434 19.5206M28.1134 7C30.9543 7.35503 33.6036 8.78618 35.6261 11.0586C37.6486 13.3309 38.9242 16.3093 39.2434 19.5048M37.8434 32.0726V36.7974C37.8449 37.236 37.7651 37.6701 37.6089 38.0721C37.4527 38.4739 37.2236 38.8346 36.9363 39.1312C36.649 39.4277 36.3098 39.6535 35.9404 39.794C35.5711 39.9345 35.1797 39.9867 34.7914 39.9472C30.4833 39.4206 26.3452 37.7646 22.7094 35.1122C19.3267 32.6942 16.4588 29.468 14.3094 25.6627C11.9433 21.5541 10.4709 16.8763 10.0114 12.0082C9.97637 11.5728 10.0224 11.1338 10.1465 10.7194C10.2705 10.305 10.47 9.92417 10.732 9.6012C10.9941 9.27823 11.3131 9.02016 11.6687 8.84344C12.0243 8.66682 12.4086 8.57536 12.7974 8.57491H16.9974C17.6768 8.56738 18.3355 8.83804 18.8506 9.33639C19.3658 9.83485 19.7023 10.5269 19.7974 11.2838C19.9746 12.7958 20.3034 14.2804 20.7774 15.7093C20.9657 16.273 21.0065 16.8856 20.8948 17.4745C20.7832 18.0635 20.5238 18.6042 20.1474 19.0323L18.3694 21.0325C20.3623 24.9754 23.2644 28.24 26.7694 30.482L28.5474 28.4818C28.928 28.0584 29.4086 27.7666 29.9321 27.6409C30.4557 27.5154 31.0003 27.5612 31.5014 27.7731C32.7715 28.3063 34.0913 28.6761 35.4354 28.8756C36.1154 28.9834 36.7365 29.3688 37.1805 29.9583C37.6245 30.5478 37.8604 31.3003 37.8434 32.0726Z" stroke="#FFEAA7" stroke-width="3" stroke-linecap="round" stroke-linejoin="round"/>
</g>
</g>
<defs>
<filter id="filter0_dd_1_19" x="-7.5" y="-6.50016" width="64.2435" height="67.9602" filterUnits="userSpaceOnUse" color-interpolation-filters="sRGB">
<feFlood flood-opacity="0" result="BackgroundImageFix"/>
<feColorMatrix in="SourceAlpha" type="matrix" values="0 0 0 0 0 0 0 0 0 0 0 0 0 0 0 0 0 0 127 0" result="hardAlpha"/>
<feOffset dy="4"/>
<feGaussianBlur stdDeviation="8"/>
<feColorMatrix type="matrix" values="0 0 0 0 0.14902 0 0 0 0 0.196078 0 0 0 0 0.219608 0 0 0 0.08 0"/>
<feBlend mode="multiply" in2="BackgroundImageFix" result="effect1_dropShadow_1_19"/>
<feColorMatrix in="SourceAlpha" type="matrix" values="0 0 0 0 0 0 0 0 0 0 0 0 0 0 0 0 0 0 127 0" result="hardAlpha"/>
<feOffset dy="4"/>
<feGaussianBlur stdDeviation="3"/>
<feColorMatrix type="matrix" values="0 0 0 0 0.14902 0 0 0 0 0.196078 0 0 0 0 0.219608 0 0 0 0.16 0"/>
<feBlend mode="multiply" in2="effect1_dropShadow_1_19" result="effect2_dropShadow_1_19"/>
<feBlend mode="normal" in="SourceGraphic" in2="effect2_dropShadow_1_19" result="shape"/>
</filter>
<clipPath id="clip0_1_19">
<rect width="49" height="50" fill="white"/>
</clipPath>
</defs>
</svg>
