<svg width="143" height="259" viewBox="0 0 143 259" fill="none" xmlns="http://www.w3.org/2000/svg">
<path d="M93.4679 35.6612C97.0362 35.6612 99.9291 32.6675 99.9291 28.9747C99.9291 25.2819 97.0362 22.2882 93.4679 22.2882C89.8996 22.2882 87.0077 25.2819 87.0077 28.9747C87.0077 32.6675 89.8996 35.6612 93.4679 35.6612Z" fill="#A29BFE"/>
<path d="M115.003 13.3729C118.572 13.3729 121.465 10.3793 121.465 6.68647C121.465 2.99363 118.572 0 115.003 0C111.436 0 108.543 2.99363 108.543 6.68647C108.543 10.3793 111.436 13.3729 115.003 13.3729Z" fill="#A29BFE"/>
<path d="M136.54 35.6612C140.107 35.6612 143 32.6675 143 28.9747C143 25.2819 140.107 22.2882 136.54 22.2882C132.971 22.2882 130.079 25.2819 130.079 28.9747C130.079 32.6675 132.971 35.6612 136.54 35.6612Z" fill="#A29BFE"/>
<path d="M50.397 80.2376C53.9644 80.2376 56.8573 77.244 56.8573 73.5512C56.8573 69.8583 53.9644 66.8647 50.397 66.8647C46.8287 66.8647 43.9358 69.8583 43.9358 73.5512C43.9358 77.244 46.8287 80.2376 50.397 80.2376Z" fill="#A29BFE"/>
<path d="M71.9325 57.9494C75.5008 57.9494 78.3927 54.9558 78.3927 51.2629C78.3927 47.5701 75.5008 44.5765 71.9325 44.5765C68.3642 44.5765 65.4713 47.5701 65.4713 51.2629C65.4713 54.9558 68.3642 57.9494 71.9325 57.9494Z" fill="#A29BFE"/>
<path d="M93.4679 80.2376C97.0362 80.2376 99.9291 77.244 99.9291 73.5512C99.9291 69.8583 97.0362 66.8647 93.4679 66.8647C89.8996 66.8647 87.0077 69.8583 87.0077 73.5512C87.0077 77.244 89.8996 80.2376 93.4679 80.2376Z" fill="#A29BFE"/>
<path d="M115.003 57.9494C118.572 57.9494 121.465 54.9558 121.465 51.2629C121.465 47.5701 118.572 44.5765 115.003 44.5765C111.436 44.5765 108.543 47.5701 108.543 51.2629C108.543 54.9558 111.436 57.9494 115.003 57.9494Z" fill="#A29BFE"/>
<path d="M136.54 80.2376C140.107 80.2376 143 77.244 143 73.5512C143 69.8583 140.107 66.8647 136.54 66.8647C132.971 66.8647 130.079 69.8583 130.079 73.5512C130.079 77.244 132.971 80.2376 136.54 80.2376Z" fill="#A29BFE"/>
<path d="M7.32541 124.814C10.8936 124.814 13.7861 121.82 13.7861 118.128C13.7861 114.435 10.8936 111.441 7.32541 111.441C3.7573 111.441 0.864685 114.435 0.864685 118.128C0.864685 121.82 3.7573 124.814 7.32541 124.814Z" fill="#A29BFE"/>
<path d="M28.861 102.526C32.4292 102.526 35.3219 99.5322 35.3219 95.8394C35.3219 92.1466 32.4292 89.1529 28.861 89.1529C25.2929 89.1529 22.4004 92.1466 22.4004 95.8394C22.4004 99.5322 25.2929 102.526 28.861 102.526Z" fill="#A29BFE"/>
<path d="M50.397 124.814C53.9644 124.814 56.8573 121.82 56.8573 118.128C56.8573 114.435 53.9644 111.441 50.397 111.441C46.8287 111.441 43.9358 114.435 43.9358 118.128C43.9358 121.82 46.8287 124.814 50.397 124.814Z" fill="#A29BFE"/>
<path d="M71.9325 102.526C75.5008 102.526 78.3927 99.5322 78.3927 95.8394C78.3927 92.1466 75.5008 89.1529 71.9325 89.1529C68.3642 89.1529 65.4713 92.1466 65.4713 95.8394C65.4713 99.5322 68.3642 102.526 71.9325 102.526Z" fill="#A29BFE"/>
<path d="M93.4679 124.814C97.0362 124.814 99.9291 121.82 99.9291 118.128C99.9291 114.435 97.0362 111.441 93.4679 111.441C89.8996 111.441 87.0077 114.435 87.0077 118.128C87.0077 121.82 89.8996 124.814 93.4679 124.814Z" fill="#A29BFE"/>
<path d="M115.003 102.526C118.572 102.526 121.465 99.5322 121.465 95.8394C121.465 92.1466 118.572 89.1529 115.003 89.1529C111.436 89.1529 108.543 92.1466 108.543 95.8394C108.543 99.5322 111.436 102.526 115.003 102.526Z" fill="#A29BFE"/>
<path d="M136.54 124.814C140.107 124.814 143 121.82 143 118.128C143 114.435 140.107 111.441 136.54 111.441C132.971 111.441 130.079 114.435 130.079 118.128C130.079 121.82 132.971 124.814 136.54 124.814Z" fill="#A29BFE"/>
<path d="M28.861 147.102C32.4292 147.102 35.3219 144.109 35.3219 140.416C35.3219 136.723 32.4292 133.729 28.861 133.729C25.2929 133.729 22.4004 136.723 22.4004 140.416C22.4004 144.109 25.2929 147.102 28.861 147.102Z" fill="#A29BFE"/>
<path d="M50.397 169.391C53.9644 169.391 56.8573 166.397 56.8573 162.704C56.8573 159.011 53.9644 156.018 50.397 156.018C46.8287 156.018 43.9358 159.011 43.9358 162.704C43.9358 166.397 46.8287 169.391 50.397 169.391Z" fill="#A29BFE"/>
<path d="M71.9325 147.102C75.5008 147.102 78.3927 144.109 78.3927 140.416C78.3927 136.723 75.5008 133.729 71.9325 133.729C68.3642 133.729 65.4713 136.723 65.4713 140.416C65.4713 144.109 68.3642 147.102 71.9325 147.102Z" fill="#A29BFE"/>
<path d="M93.4679 169.391C97.0362 169.391 99.9291 166.397 99.9291 162.704C99.9291 159.011 97.0362 156.018 93.4679 156.018C89.8996 156.018 87.0077 159.011 87.0077 162.704C87.0077 166.397 89.8996 169.391 93.4679 169.391Z" fill="#A29BFE"/>
<path d="M115.003 147.102C118.572 147.102 121.465 144.109 121.465 140.416C121.465 136.723 118.572 133.729 115.003 133.729C111.436 133.729 108.543 136.723 108.543 140.416C108.543 144.109 111.436 147.102 115.003 147.102Z" fill="#A29BFE"/>
<path d="M136.54 169.391C140.107 169.391 143 166.397 143 162.704C143 159.011 140.107 156.018 136.54 156.018C132.971 156.018 130.079 159.011 130.079 162.704C130.079 166.397 132.971 169.391 136.54 169.391Z" fill="#A29BFE"/>
<path d="M71.9325 191.679C75.5008 191.679 78.3927 188.685 78.3927 184.992C78.3927 181.299 75.5008 178.306 71.9325 178.306C68.3642 178.306 65.4713 181.299 65.4713 184.992C65.4713 188.685 68.3642 191.679 71.9325 191.679Z" fill="#A29BFE"/>
<path d="M93.4679 213.967C97.0362 213.967 99.9291 210.973 99.9291 207.281C99.9291 203.588 97.0362 200.594 93.4679 200.594C89.8996 200.594 87.0077 203.588 87.0077 207.281C87.0077 210.973 89.8996 213.967 93.4679 213.967Z" fill="#A29BFE"/>
<path d="M115.003 191.679C118.572 191.679 121.465 188.685 121.465 184.992C121.465 181.299 118.572 178.306 115.003 178.306C111.436 178.306 108.543 181.299 108.543 184.992C108.543 188.685 111.436 191.679 115.003 191.679Z" fill="#A29BFE"/>
<path d="M136.54 213.967C140.107 213.967 143 210.973 143 207.281C143 203.588 140.107 200.594 136.54 200.594C132.971 200.594 130.079 203.588 130.079 207.281C130.079 210.973 132.971 213.967 136.54 213.967Z" fill="#A29BFE"/>
<path d="M115.003 236.255C118.572 236.255 121.465 233.262 121.465 229.569C121.465 225.876 118.572 222.882 115.003 222.882C111.436 222.882 108.543 225.876 108.543 229.569C108.543 233.262 111.436 236.255 115.003 236.255Z" fill="#A29BFE"/>
<path d="M136.54 258.543C140.107 258.543 143 255.55 143 251.857C143 248.164 140.107 245.171 136.54 245.171C132.971 245.171 130.079 248.164 130.079 251.857C130.079 255.55 132.971 258.543 136.54 258.543Z" fill="#A29BFE"/>
</svg>
